<svg width="20" height="20" viewBox="0 0 20 20" fill="none" xmlns="http://www.w3.org/2000/svg">
    <path
        d="M7.08366 15.8334H6.66699C3.33366 15.8334 1.66699 15.0001 1.66699 10.8334V6.66675C1.66699 3.33341 3.33366 1.66675 6.66699 1.66675H13.3337C16.667 1.66675 18.3337 3.33341 18.3337 6.66675V10.8334C18.3337 14.1667 16.667 15.8334 13.3337 15.8334H12.917C12.6587 15.8334 12.4087 15.9584 12.2503 16.1667L11.0003 17.8334C10.4503 18.5667 9.55033 18.5667 9.00033 17.8334L7.75033 16.1667C7.61699 15.9834 7.30866 15.8334 7.08366 15.8334Z"
        stroke="currentColor" stroke-width="1.2" stroke-miterlimit="10" stroke-linecap="round"
        stroke-linejoin="round" />
    <path d="M13.3301 9.16667H13.3375" stroke="currentColor" stroke-linecap="round" stroke-linejoin="round" />
    <path d="M9.99607 9.16667H10.0036" stroke="currentColor" stroke-linecap="round" stroke-linejoin="round" />
    <path d="M6.66209 9.16667H6.66957" stroke="currentColor" stroke-linecap="round" stroke-linejoin="round" />
</svg>