<svg width="21" height="20" viewBox="0 0 21 20" fill="none" xmlns="http://www.w3.org/2000/svg">
    <path
        d="M3 10.9025C3 10.8383 3 10.8058 3.00167 10.7792C3.0148 10.5773 3.10093 10.3871 3.24399 10.244C3.38705 10.1009 3.57727 10.0148 3.77917 10.0017C3.80667 10 3.8375 10 3.9025 10H17.0975C17.1617 10 17.1933 10 17.2208 10.0017C17.4227 10.0148 17.6129 10.1009 17.756 10.244C17.8991 10.3871 17.9852 10.5773 17.9983 10.7792C18 10.8058 18 10.8375 18 10.9025C18 11.2317 18 11.3967 17.9883 11.5817C17.8142 14.3208 15.4858 16.7392 12.755 17.015C12.5708 17.0342 12.4633 17.0383 12.2483 17.0467C11.6658 17.0696 11.083 17.0818 10.5 17.0833C9.95833 17.0833 9.36333 17.0692 8.75167 17.0467C8.53667 17.0383 8.42917 17.0342 8.24583 17.0158C5.51417 16.7392 3.18583 14.3208 3.0125 11.5817C3 11.3967 3 11.2317 3 10.9025Z"
        stroke="currentColor" stroke-width="1.2" />
    <path d="M5.50008 16.6667L4.66675 18.3333M15.5001 16.6667L16.3334 18.3333M2.16675 10H18.8334" stroke="currentColor"
        stroke-width="1.2" stroke-linecap="round" />
    <path
        d="M2.375 10.8333C2.375 10.9991 2.44085 11.1581 2.55806 11.2753C2.67527 11.3925 2.83424 11.4583 3 11.4583C3.16576 11.4583 3.32473 11.3925 3.44194 11.2753C3.55915 11.1581 3.625 10.9991 3.625 10.8333H2.375ZM5.78833 7.28499L5.20667 7.51416C5.23743 7.59194 5.2835 7.66276 5.34214 7.72241C5.40078 7.78206 5.4708 7.82933 5.54804 7.86143C5.62529 7.89352 5.70819 7.90979 5.79184 7.90925C5.87548 7.90872 5.95817 7.8914 6.035 7.85832L5.78833 7.28499ZM10.755 5.14582L11.0025 5.72082C11.1517 5.65658 11.2699 5.5368 11.3323 5.38685C11.3947 5.2369 11.3963 5.06857 11.3367 4.91749L10.755 5.14582ZM3.625 10.8333V3.65416H2.375V10.8333H3.625ZM4.9875 2.29166C5.545 2.29166 6.04583 2.63082 6.2525 3.14832L7.41333 2.68332C7.2195 2.19859 6.88489 1.78388 6.45265 1.49112C6.02042 1.19836 5.51038 1.04181 4.98833 1.04166L4.9875 2.29166ZM3.625 3.65416C3.625 2.90166 4.235 2.29166 4.9875 2.29166L4.98833 1.04166C4.29546 1.04166 3.63012 1.3169 3.14018 1.80684C2.65024 2.29678 2.375 2.96128 2.375 3.65416H3.625ZM6.2525 3.14832L6.56917 3.93832L7.72917 3.47416L7.41333 2.68332L6.2525 3.14832ZM6.36917 7.05582C6.15963 6.52154 6.1638 5.9271 6.38083 5.39582L5.2225 4.92499C4.88447 5.75385 4.87934 6.68102 5.20667 7.51416L6.36917 7.05582ZM10.5083 4.57249L5.54083 6.71082L6.035 7.85832L11.0017 5.71999L10.5083 4.57249ZM9.06833 4.22332C9.58667 4.44499 9.9725 4.86416 10.1742 5.37499L11.3367 4.91749C11.1778 4.50761 10.9389 4.13266 10.6339 3.81617C10.3288 3.49967 9.96375 3.24714 9.56 3.07332L9.06833 4.22332ZM6.38083 5.39582C6.57664 4.90388 6.94774 4.50274 7.4225 4.26832L6.87583 3.14499C6.12384 3.51382 5.53492 4.14786 5.2225 4.92499L6.38083 5.39582ZM7.4225 4.26832C7.67735 4.14247 7.95644 4.07335 8.24057 4.06572C8.5247 4.0581 8.8071 4.11132 9.06833 4.22332L9.56 3.07332C9.1339 2.89107 8.67345 2.80388 8.21017 2.81611C7.74689 2.82833 7.29173 2.94052 6.87583 3.14499L7.4225 4.26832Z"
        fill="currentColor" />
</svg>