<svg width="20" height="20" viewBox="0 0 20 20" fill="none" xmlns="http://www.w3.org/2000/svg">
    <path d="M15.8334 16.6667V15.4167M4.16675 16.6667V15.4167" stroke="currentColor" stroke-width="1.2"
        stroke-linecap="round" />
    <path
        d="M17.5001 10C17.5001 6.85751 17.5001 5.28584 16.5234 4.31001C15.5467 3.33418 13.9759 3.33334 10.8334 3.33334H9.16675C6.02425 3.33334 4.45258 3.33334 3.47675 4.31001C2.50091 5.28668 2.50008 6.85751 2.50008 10M1.66675 12.5C1.66675 11.7233 1.66675 11.335 1.79341 11.0292C1.87718 10.8268 1.99999 10.643 2.15485 10.4881C2.30971 10.3333 2.49357 10.2104 2.69591 10.1267C3.00175 10 3.39008 10 4.16675 10H15.8334C16.6101 10 16.9984 10 17.3042 10.1267C17.5066 10.2104 17.6905 10.3333 17.8453 10.4881C18.0002 10.643 18.123 10.8268 18.2067 11.0292C18.3334 11.335 18.3334 11.7233 18.3334 12.5C18.3334 13.2767 18.3334 13.665 18.2067 13.9708C18.123 14.1732 18.0002 14.3571 17.8453 14.5119C17.6905 14.6668 17.5066 14.7896 17.3042 14.8733C16.9984 15 16.6101 15 15.8334 15H4.16675C3.39008 15 3.00175 15 2.69591 14.8733C2.49357 14.7896 2.30971 14.6668 2.15485 14.5119C1.99999 14.3571 1.87718 14.1732 1.79341 13.9708C1.66675 13.665 1.66675 13.2767 1.66675 12.5Z"
        stroke="currentColor" stroke-width="1.2" />
    <path
        d="M15.4168 10V8.75002C15.4168 7.17835 15.4168 6.39335 14.9285 5.90502C14.4402 5.41669 13.6552 5.41669 12.0835 5.41669H7.91683C6.34516 5.41669 5.56016 5.41669 5.07183 5.90502C4.5835 6.39335 4.5835 7.17835 4.5835 8.75002V10M10.0002 5.83335V10"
        stroke="currentColor" stroke-width="1.2" />
</svg>