<svg width="46" height="46" viewBox="0 0 46 46" fill="none" xmlns="http://www.w3.org/2000/svg">
<rect x="1" y="1" width="44" height="44" rx="10" fill="#292929" style="fill:#292929;fill:color(display-p3 0.1600 0.1600 0.1600);fill-opacity:1;"/>
<rect x="1" y="1" width="44" height="44" rx="10" stroke="#A4A4A4" style="stroke:#A4A4A4;stroke:color(display-p3 0.6431 0.6431 0.6431);stroke-opacity:1;"/>
<path fill-rule="evenodd" clip-rule="evenodd" d="M28.5657 13.5657C28.2533 13.2533 27.7467 13.2533 27.4343 13.5657L23 18V13.8C23 13.3582 22.6418 13 22.2 13H18.3314C18.1192 13 17.9157 13.0843 17.7657 13.2343L13.5657 17.4343C13.2533 17.7467 13.2533 18.2533 13.5657 18.5657L18 23H13.8C13.3582 23 13 23.3582 13 23.8V27.6686C13 27.8808 13.0843 28.0843 13.2343 28.2343L17.4343 32.4343C17.7467 32.7467 18.2533 32.7467 18.5657 32.4343L23 28V32.2C23 32.6418 23.3582 33 23.8 33H27.6686C27.8808 33 28.0843 32.9157 28.2343 32.7657L32.4343 28.5657C32.7467 28.2533 32.7467 27.7467 32.4343 27.4343L28 23H32.2C32.6418 23 33 22.6418 33 22.2V18.3314C33 18.1192 32.9157 17.9157 32.7657 17.7657L28.5657 13.5657ZM28 23L23 28L18 23L23 18L28 23Z" fill="white" style="fill:white;fill-opacity:1;"/>
</svg>
