<svg width="112" height="38" viewBox="0 0 112 38" fill="none" xmlns="http://www.w3.org/2000/svg">
<rect x="1" y="1" width="36" height="36" rx="8" fill="#292929" style="fill:#292929;fill:color(display-p3 0.1600 0.1600 0.1600);fill-opacity:1;"/>
<rect x="1" y="1" width="36" height="36" rx="8" stroke="#A4A4A4" style="stroke:#A4A4A4;stroke:color(display-p3 0.6431 0.6431 0.6431);stroke-opacity:1;"/>
<path fill-rule="evenodd" clip-rule="evenodd" d="M23.7324 11.2324C23.42 10.92 22.9135 10.92 22.6011 11.2324L19.0001 14.8334V11.4667C19.0001 11.0249 18.6419 10.6667 18.2001 10.6667H15.1648C14.9526 10.6667 14.7491 10.751 14.5991 10.9011L11.2324 14.2677C10.92 14.5801 10.92 15.0867 11.2324 15.3991L14.8334 19.0001H11.4667C11.0249 19.0001 10.6667 19.3583 10.6667 19.8001V22.8354C10.6667 23.0475 10.751 23.251 10.9011 23.4011L14.2677 26.7677C14.5801 27.0801 15.0867 27.0801 15.3991 26.7677L19.0001 23.1667V26.5334C19.0001 26.9752 19.3583 27.3334 19.8001 27.3334H22.8354C23.0475 27.3334 23.251 27.2491 23.4011 27.0991L26.7677 23.7324C27.0801 23.42 27.0801 22.9135 26.7677 22.6011L23.1667 19.0001H26.5334C26.9752 19.0001 27.3334 18.6419 27.3334 18.2001V15.1648C27.3334 14.9526 27.2491 14.7491 27.0991 14.5991L23.7324 11.2324ZM23.1667 19.0001L19.0001 23.1667L14.8334 19.0001L19.0001 14.8334L23.1667 19.0001Z" fill="white" style="fill:white;fill-opacity:1;"/>
<path d="M46.3999 27V12.6H52.3499C52.4899 12.6 52.6699 12.6067 52.8899 12.62C53.1099 12.6267 53.3132 12.6467 53.4999 12.68C54.3332 12.8067 55.0199 13.0834 55.5599 13.51C56.1066 13.9367 56.5099 14.4767 56.7699 15.13C57.0366 15.7767 57.1699 16.4967 57.1699 17.29C57.1699 18.4634 56.8732 19.4734 56.2799 20.32C55.6866 21.16 54.7766 21.68 53.5499 21.88L52.5199 21.97H48.8099V27H46.3999ZM54.6699 27L51.8299 21.14L54.2799 20.6L57.3999 27H54.6699ZM48.8099 19.72H52.2499C52.3832 19.72 52.5332 19.7134 52.6999 19.7C52.8666 19.6867 53.0199 19.66 53.1599 19.62C53.5599 19.52 53.8732 19.3434 54.0999 19.09C54.3332 18.8367 54.4966 18.55 54.5899 18.23C54.6899 17.91 54.7399 17.5967 54.7399 17.29C54.7399 16.9834 54.6899 16.67 54.5899 16.35C54.4966 16.0234 54.3332 15.7334 54.0999 15.48C53.8732 15.2267 53.5599 15.05 53.1599 14.95C53.0199 14.91 52.8666 14.8867 52.6999 14.88C52.5332 14.8667 52.3832 14.86 52.2499 14.86H48.8099V19.72Z" fill="#292929" style="fill:#292929;fill:color(display-p3 0.1600 0.1600 0.1600);fill-opacity:1;"/>
<path d="M63.253 27.31C62.453 27.31 61.793 27.1767 61.273 26.91C60.753 26.6434 60.3397 26.3034 60.033 25.89C59.7264 25.4767 59.4997 25.0367 59.353 24.57C59.2064 24.1034 59.1097 23.6634 59.063 23.25C59.023 22.83 59.003 22.49 59.003 22.23V16.2H61.443V21.4C61.443 21.7334 61.4664 22.11 61.513 22.53C61.5597 22.9434 61.6664 23.3434 61.833 23.73C62.0064 24.11 62.2597 24.4234 62.593 24.67C62.933 24.9167 63.3897 25.04 63.963 25.04C64.2697 25.04 64.573 24.99 64.873 24.89C65.173 24.79 65.443 24.62 65.683 24.38C65.9297 24.1334 66.1264 23.7967 66.273 23.37C66.4197 22.9434 66.493 22.4034 66.493 21.75L67.923 22.36C67.923 23.28 67.743 24.1134 67.383 24.86C67.0297 25.6067 66.5064 26.2034 65.813 26.65C65.1197 27.09 64.2664 27.31 63.253 27.31ZM66.783 27V23.65H66.493V16.2H68.913V27H66.783Z" fill="#292929" style="fill:#292929;fill:color(display-p3 0.1600 0.1600 0.1600);fill-opacity:1;"/>
<path d="M76.5126 27.3C75.4592 27.3 74.5759 27.05 73.8626 26.55C73.1492 26.05 72.6126 25.37 72.2526 24.51C71.8926 23.6434 71.7126 22.6734 71.7126 21.6C71.7126 20.5134 71.8926 19.54 72.2526 18.68C72.6126 17.82 73.1392 17.1434 73.8326 16.65C74.5326 16.15 75.3959 15.9 76.4226 15.9C77.4426 15.9 78.3259 16.15 79.0726 16.65C79.8259 17.1434 80.4092 17.82 80.8226 18.68C81.2359 19.5334 81.4426 20.5067 81.4426 21.6C81.4426 22.68 81.2392 23.65 80.8326 24.51C80.4259 25.37 79.8526 26.05 79.1126 26.55C78.3726 27.05 77.5059 27.3 76.5126 27.3ZM71.3026 27V12.6H73.7326V19.42H73.4326V27H71.3026ZM76.1426 25.14C76.7692 25.14 77.2859 24.9834 77.6926 24.67C78.0992 24.3567 78.3992 23.9334 78.5926 23.4C78.7926 22.86 78.8926 22.26 78.8926 21.6C78.8926 20.9467 78.7926 20.3534 78.5926 19.82C78.3926 19.28 78.0826 18.8534 77.6626 18.54C77.2426 18.22 76.7092 18.06 76.0626 18.06C75.4492 18.06 74.9492 18.21 74.5626 18.51C74.1759 18.8034 73.8892 19.2167 73.7026 19.75C73.5226 20.2767 73.4326 20.8934 73.4326 21.6C73.4326 22.3 73.5226 22.9167 73.7026 23.45C73.8892 23.9834 74.1792 24.4 74.5726 24.7C74.9726 24.9934 75.4959 25.14 76.1426 25.14Z" fill="#292929" style="fill:#292929;fill:color(display-p3 0.1600 0.1600 0.1600);fill-opacity:1;"/>
<path d="M88.4368 27.3C87.3834 27.3 86.5001 27.05 85.7868 26.55C85.0734 26.05 84.5368 25.37 84.1768 24.51C83.8168 23.6434 83.6368 22.6734 83.6368 21.6C83.6368 20.5134 83.8168 19.54 84.1768 18.68C84.5368 17.82 85.0634 17.1434 85.7568 16.65C86.4568 16.15 87.3201 15.9 88.3468 15.9C89.3668 15.9 90.2501 16.15 90.9968 16.65C91.7501 17.1434 92.3334 17.82 92.7468 18.68C93.1601 19.5334 93.3668 20.5067 93.3668 21.6C93.3668 22.68 93.1634 23.65 92.7568 24.51C92.3501 25.37 91.7768 26.05 91.0368 26.55C90.2968 27.05 89.4301 27.3 88.4368 27.3ZM83.2268 27V12.6H85.6568V19.42H85.3568V27H83.2268ZM88.0668 25.14C88.6934 25.14 89.2101 24.9834 89.6168 24.67C90.0234 24.3567 90.3234 23.9334 90.5168 23.4C90.7168 22.86 90.8168 22.26 90.8168 21.6C90.8168 20.9467 90.7168 20.3534 90.5168 19.82C90.3168 19.28 90.0068 18.8534 89.5868 18.54C89.1668 18.22 88.6334 18.06 87.9868 18.06C87.3734 18.06 86.8734 18.21 86.4868 18.51C86.1001 18.8034 85.8134 19.2167 85.6268 19.75C85.4468 20.2767 85.3568 20.8934 85.3568 21.6C85.3568 22.3 85.4468 22.9167 85.6268 23.45C85.8134 23.9834 86.1034 24.4 86.4968 24.7C86.8968 24.9934 87.4201 25.14 88.0668 25.14Z" fill="#292929" style="fill:#292929;fill:color(display-p3 0.1600 0.1600 0.1600);fill-opacity:1;"/>
<path d="M95.371 27V12.3H97.781V27H95.371Z" fill="#292929" style="fill:#292929;fill:color(display-p3 0.1600 0.1600 0.1600);fill-opacity:1;"/>
<path d="M105.286 27.3C104.193 27.3 103.233 27.0634 102.406 26.59C101.58 26.1167 100.933 25.46 100.466 24.62C100.006 23.78 99.7765 22.8134 99.7765 21.72C99.7765 20.54 100.003 19.5167 100.456 18.65C100.91 17.7767 101.54 17.1 102.346 16.62C103.153 16.14 104.086 15.9 105.146 15.9C106.266 15.9 107.216 16.1634 107.996 16.69C108.783 17.21 109.366 17.9467 109.746 18.9C110.126 19.8534 110.27 20.9767 110.176 22.27H107.786V21.39C107.78 20.2167 107.573 19.36 107.166 18.82C106.76 18.28 106.12 18.01 105.246 18.01C104.26 18.01 103.526 18.3167 103.046 18.93C102.566 19.5367 102.326 20.4267 102.326 21.6C102.326 22.6934 102.566 23.54 103.046 24.14C103.526 24.74 104.226 25.04 105.146 25.04C105.74 25.04 106.25 24.91 106.676 24.65C107.11 24.3834 107.443 24 107.676 23.5L110.056 24.22C109.643 25.1934 109.003 25.95 108.136 26.49C107.276 27.03 106.326 27.3 105.286 27.3ZM101.566 22.27V20.45H108.996V22.27H101.566Z" fill="#292929" style="fill:#292929;fill:color(display-p3 0.1600 0.1600 0.1600);fill-opacity:1;"/>
</svg>
